<svg width="50" height="50" fill="none" xmlns="http://www.w3.org/2000/svg"><rect width="50" height="50" rx="25" fill="#F8D24E"/><g clip-path="url('#clip0_11708_12396')" fill="#131313"><path d="M13.94 7.216c-.294.254-1.133 2.004-1.434 2.96-.358 1.183-.48 2.07-.432 3.296.065 1.75.505 3.078 1.474 4.464.253.364.457.676.457.702 0 .017-.155.034-.35.034-.84 0-2.412.279-3.617.642C8.124 19.89 7 20.895 7 22.02c0 .398.358 1.074.741 1.42.741.669 2.362 1.303 4.105 1.607.603.11 2.395.296 2.794.304.073 0 .098.39.098 1.666 0 1.099.04 1.953.122 2.477.293 1.877 1.205 3.863 2.41 5.267l.416.482-.277.448c-.407.634-.562 1.116-.61 1.834-.123 1.725.952 3.255 3.03 4.329 3.957 2.054 10.107 1.251 12.412-1.623 1.124-1.404 1.254-3.01.366-4.464l-.277-.448.497-.6c.929-1.116 1.531-2.232 1.988-3.644.382-1.2.529-2.359.529-4.194 0-.836.024-1.53.065-1.53.375-.008 2.175-.203 2.745-.304 1.751-.304 3.34-.93 4.105-1.606.383-.347.741-1.023.741-1.42 0-1.252-1.27-2.266-3.633-2.875-.773-.203-2.231-.448-2.94-.49l-.334-.026.367-.507c.456-.617 1.026-1.817 1.246-2.604.619-2.274.236-4.92-1.092-7.448-.553-1.048-.936-1.293-1.384-.88-.171.162-.244.381-.407 1.176-.505 2.528-1.442 4.532-2.81 6.01l-.603.66H18.525l-.538-.583c-1.335-1.471-2.305-3.55-2.81-6.087-.162-.795-.236-1.014-.407-1.175-.269-.245-.53-.237-.83.025Zm1.042 5.014c.432.946.97 1.834 1.604 2.654l.505.651-.529.397c-.497.38-.961.922-1.32 1.54l-.154.278-.391-.532c-1.336-1.844-1.67-4.1-.961-6.443.342-1.132.334-1.124.643-.143.147.473.424 1.192.603 1.598Zm21.2-1.784a8.353 8.353 0 0 1 .465 2.849c0 1.538-.407 2.84-1.262 4.007l-.383.524-.285-.482a5.064 5.064 0 0 0-1.426-1.564c-.22-.143-.39-.287-.39-.304 0-.025.154-.22.35-.431.904-1.006 1.873-2.815 2.354-4.371.146-.482.293-.88.317-.88.025 0 .147.297.26.652Zm-4.161 6.18c.904.38 1.767 1.47 1.906 2.392.073.508.244.829.464.88.098.016.774.076 1.499.126 2.573.17 4.601.719 5.465 1.471.399.355.358.651-.122 1.015-.961.727-3.038 1.276-5.156 1.37-1.401.059-1.694.1-1.881.295-.139.144-.155.296-.155 1.826 0 2.072-.106 3.264-.367 4.227-.366 1.31-1.091 2.706-1.938 3.695l-.35.406-.725-.432a8.99 8.99 0 0 0-2.688-1.09c-3.087-.736-6.5-.288-8.796 1.158l-.53.338-.334-.397c-.456-.533-1.173-1.674-1.458-2.316-.627-1.455-.814-2.638-.814-5.242 0-2.528.13-2.342-1.743-2.443-2.395-.127-4.22-.558-5.368-1.285-.847-.541-.708-1.023.473-1.59 1.132-.55 2.688-.879 4.846-1.014 1.678-.11 1.718-.135 1.873-.947.228-1.226 1.132-2.24 2.273-2.562.285-.084 1.881-.101 6.768-.093l6.394.017.464.195Zm-4.578 17.5c1.996.49 3.486 1.403 4.13 2.536.155.262.22.532.252.947.033.515.009.642-.187 1.065-.904 1.92-4.227 3.187-7.607 2.9-4.064-.338-6.736-2.604-5.685-4.828.57-1.2 2.5-2.35 4.536-2.688.334-.05.668-.11.733-.127.066-.017.799-.017 1.63 0 1.131.026 1.677.076 2.198.195Z"/><path d="M19.364 20.861c-.505.17-.847.39-1.303.846-.4.38-.432.828-.098 1.099.31.253.603.22.977-.11.473-.414.84-.584 1.295-.584.457-.008.807.153 1.296.584.374.33.667.363.977.11.163-.136.212-.245.212-.5 0-.261-.057-.38-.342-.667-.807-.811-2.004-1.124-3.014-.778ZM28.86 20.852c-.52.195-1.189.635-1.457.964-.261.322-.27.685 0 .956.268.287.594.27.985-.051.961-.795 1.678-.82 2.566-.085.228.195.488.347.57.347.399 0 .725-.355.725-.778 0-.27-.676-.896-1.287-1.192-.676-.33-1.482-.389-2.101-.16ZM20.545 36.502c-.236.228-.318.557-.196.82.09.211.228.295.79.448.253.067.359.152.448.363.114.28.122.28.75.304l.627.026v-.237c-.008-.338-.196-.828-.44-1.166-.285-.39-.782-.643-1.344-.694-.383-.033-.48-.017-.635.136ZM28.323 36.442c-.407.11-.993.66-1.156 1.09a2.92 2.92 0 0 0-.155.77c-.016.363.016.448.212.625.48.423 1.116.093 1.116-.583 0-.33.244-.558.676-.642.456-.085.619-.271.627-.702 0-.567-.505-.786-1.32-.558Z"/></g><defs><clipPath id="clip0_11708_12396"><path fill="#fff" transform="translate(7 7)" d="M0 0h36v36H0z"/></clipPath></defs></svg>