<svg width="50" height="50" fill="none" xmlns="http://www.w3.org/2000/svg"><rect width="50" height="50" rx="25" fill="#F8D24E"/><path d="M22.95 7.615c-4.471.663-8.153 3.146-9.508 6.396-.432 1.027-.548 1.658-.548 2.895.008.914.041 1.253.183 1.747.29.97.498 1.463.93 2.158l.4.647-.45.55c-3.548 4.415-3.939 10.625-.98 15.517 1.105 1.836 2.909 3.639 4.67 4.69l.524.307 7.164-.056 7.172-.065.34-.186c1.189-.671 2.867-2.167 3.806-3.38a14.188 14.188 0 0 0 2.726-6.323c.133-.833.133-3.3-.008-4.084-.424-2.417-1.33-4.487-2.759-6.323-.274-.348-.49-.639-.49-.663 0-.016.15-.267.324-.55.407-.647.773-1.48.972-2.207.224-.809.224-2.83 0-3.639-.798-2.87-3.191-5.264-6.573-6.582-.948-.372-2.569-.768-3.616-.897-.972-.113-3.374-.09-4.28.048Zm5.06 1.318c4.438.865 7.688 3.582 8.286 6.93.133.752.05 2.03-.174 2.741-.225.695-.64 1.512-1.13 2.207-.2.283-.366.607-.366.712 0 .105.174.38.424.655 2.077 2.304 3.174 5.191 3.174 8.312-.008 3.55-1.371 6.663-3.997 9.105-.449.42-1.089.946-1.43 1.172l-.623.42-6.873.025-6.864.032-.532-.34c-1.928-1.252-3.665-3.322-4.629-5.522-1.213-2.781-1.338-6.008-.349-8.902.524-1.504 1.222-2.733 2.285-4.027.433-.518.632-.825.632-.97 0-.122-.216-.518-.499-.93-.997-1.448-1.404-3.057-1.163-4.577.25-1.536.947-2.798 2.236-4.051 1.678-1.625 4.022-2.7 6.773-3.105 1.138-.17 3.656-.105 4.82.113Z" fill="#131313"/><path d="M23.323 10.356c-3.407.558-6.075 2.45-6.947 4.933-.2.558-.233.776-.233 1.577 0 .8.033 1.018.233 1.576.124.356.357.85.515 1.1.432.695.623.72 1.48.202a13.439 13.439 0 0 1 4.28-1.674c1.03-.21 3.008-.29 4.13-.161 1.753.202 3.656.832 5.177 1.73.432.25.873.46.98.46.632 0 1.438-1.819 1.438-3.233 0-3.146-3.008-5.838-7.271-6.51-.906-.145-2.91-.145-3.782 0Zm4.114 1.294c1.43.307 2.742.89 3.732 1.658 1.33 1.027 2.044 2.458 1.927 3.84-.041.55-.249 1.294-.373 1.375-.034.016-.5-.178-1.031-.436a16.486 16.486 0 0 0-3.632-1.238c-.773-.161-1.097-.186-2.825-.178-1.704 0-2.061.025-2.8.178-1.28.275-2.278.615-3.508 1.197-1.238.59-1.172.598-1.396-.13-.29-.945-.108-2.199.457-3.145.3-.501 1.122-1.334 1.72-1.746 1.139-.785 2.136-1.14 4.28-1.529.44-.08 2.884.033 3.449.154ZM26.083 22.08c-.233.292-.233.567.008.801.158.154.316.194.89.235a7.322 7.322 0 0 1 3.132.954c.682.404 1.72 1.383 2.186 2.086.69 1.01 1.163 2.458 1.163 3.526 0 .372.034.485.208.646.266.267.615.267.873 0 .183-.186.19-.234.141-1.026-.233-3.914-3.582-7.18-7.587-7.4l-.832-.048-.182.227Z" fill="#131313"/></svg>