<svg width="50" height="50" viewBox="0 0 50 50" fill="none" xmlns="http://www.w3.org/2000/svg">
<rect width="50" height="50" rx="25" fill="#F8D24E"/>
<path d="M22.9495 7.61526C18.4785 8.27831 14.7969 10.7607 13.4423 14.0112C13.0102 15.0381 12.8938 15.6688 12.8938 16.906C12.9021 17.8197 12.9354 18.1593 13.0766 18.6525C13.3675 19.6228 13.5753 20.1161 14.0074 20.8114L14.4063 21.4583L13.9576 22.0082C10.409 26.423 10.0184 32.633 12.9769 37.525C14.0822 39.3605 15.8856 41.1636 17.6474 42.2148L18.171 42.5221L25.3346 42.4655L32.5066 42.4008L32.8473 42.2148C34.0357 41.5437 35.7144 40.0478 36.6535 38.8349C38.0663 36.9913 38.9888 34.8405 39.3794 32.5117C39.5123 31.6789 39.5123 29.2127 39.3711 28.4284C38.9472 26.0107 38.0414 23.9407 36.612 22.1052C36.3377 21.7575 36.1217 21.4664 36.1217 21.4421C36.1217 21.426 36.2712 21.1753 36.4458 20.8923C36.853 20.2454 37.2186 19.4126 37.4181 18.6849C37.6425 17.8763 37.6425 15.8548 37.4181 15.0462C36.6203 12.1757 34.2269 9.78228 30.8445 8.46428C29.8971 8.09233 28.2765 7.69612 27.2294 7.56675C26.2571 7.45354 23.8554 7.4778 22.9495 7.61526ZM28.0106 8.93326C32.4484 9.79845 35.6978 12.5153 36.2962 15.8629C36.4291 16.6149 36.346 17.8924 36.1217 18.604C35.8973 19.2994 35.4818 20.1161 34.9914 20.8114C34.792 21.0944 34.6258 21.4179 34.6258 21.523C34.6258 21.6281 34.8003 21.903 35.0496 22.178C37.1272 24.4824 38.2242 27.3691 38.2242 30.4903C38.2159 34.04 36.853 37.153 34.2269 39.595C33.7781 40.0154 33.1382 40.541 32.7975 40.7674L32.1742 41.1879L25.3014 41.2121L18.4369 41.2445L17.905 40.9049C15.977 39.6516 14.2401 37.5816 13.2761 35.3822C12.0628 32.6007 11.9381 29.3744 12.9271 26.4797C13.4506 24.9757 14.1487 23.7466 15.2124 22.4529C15.6446 21.9354 15.844 21.6281 15.844 21.4826C15.844 21.3613 15.628 20.9651 15.3454 20.5527C14.3481 19.1053 13.9409 17.4962 14.1819 15.9761C14.4313 14.4398 15.1293 13.1784 16.4175 11.925C18.0962 10.2998 20.4397 9.22435 23.1905 8.82006C24.3291 8.65026 26.8471 8.71494 28.0106 8.93326Z" fill="#131313"/>
<path d="M23.3233 10.3564C19.916 10.9143 17.2484 12.8064 16.3758 15.2887C16.1763 15.8467 16.1431 16.065 16.1431 16.8655C16.1431 17.666 16.1763 17.8843 16.3758 18.4422C16.5004 18.798 16.7331 19.2913 16.891 19.5419C17.3232 20.2373 17.5143 20.2616 18.3703 19.7441C19.6501 18.9597 21.1211 18.3856 22.6502 18.0703C23.6807 17.8601 25.6586 17.7792 26.7805 17.9086C28.534 18.1107 30.4371 18.7414 31.9579 19.639C32.3901 19.8896 32.8306 20.0999 32.9386 20.0999C33.5702 20.0999 34.3763 18.2805 34.3763 16.8655C34.3763 13.7201 31.3679 11.0275 27.1046 10.3564C26.1988 10.2108 24.1959 10.2108 23.3233 10.3564ZM27.437 11.6501C28.8664 11.9574 30.1795 12.5395 31.1685 13.3077C32.4981 14.3346 33.2128 15.7658 33.0965 17.1485C33.0549 17.6983 32.8472 18.4422 32.7225 18.5231C32.6893 18.5393 32.2239 18.3452 31.692 18.0865C30.5867 17.5528 29.3318 17.1242 28.0603 16.8493C27.2874 16.6876 26.9633 16.6634 25.2348 16.6714C23.5311 16.6714 23.1737 16.6957 22.4341 16.8493C21.1543 17.1242 20.157 17.4639 18.9271 18.046C17.6888 18.6363 17.7553 18.6444 17.5309 17.9167C17.2401 16.9706 17.4229 15.7173 17.988 14.7713C18.2872 14.2699 19.1099 13.4371 19.7083 13.0247C20.8468 12.2404 21.8441 11.8846 23.9882 11.4965C24.4286 11.4156 26.8719 11.5288 27.437 11.6501Z" fill="#131313"/>
<path d="M26.0827 22.0808C25.85 22.3719 25.85 22.6468 26.091 22.8813C26.2489 23.0349 26.4068 23.0754 26.9802 23.1158C28.0938 23.1967 29.1576 23.5201 30.1133 24.0699C30.7947 24.4742 31.8335 25.4526 32.2989 26.1561C32.9887 27.1668 33.4624 28.6142 33.4624 29.6815C33.4624 30.0535 33.4956 30.1667 33.6702 30.3284C33.9361 30.5953 34.2851 30.5953 34.5428 30.3284C34.7256 30.1424 34.7339 30.0939 34.684 29.3015C34.4513 25.3879 31.1022 22.1212 27.0966 21.9029L26.2655 21.8544L26.0827 22.0808Z" fill="#131313"/>
</svg>
